<svg xmlns="http://www.w3.org/2000/svg" width="400" height="400" viewBox="0 0 400 400">
  <defs>
    <!-- Pepper shape definition -->
    <g id="pepper">
      <path d="M20,2 C25,2 30,5 33,10 C36,15 36,20 35,25 C34,30 36,35 38,40 C40,45 42,50 40,55 C38,60 33,65 28,66 C23,67 18,65 16,60 C14,55 14,50 16,45 C18,40 17,35 15,30 C13,25 11,20 13,15 C15,10 17,5 20,2 Z" fill="#E63946" />
      <path d="M20,2 C22,0 24,-1 26,1 C28,3 27,7 25,9 C23,11 19,11 17,9 C15,7 15,5 20,2 Z" fill="#00A86B" />
    </g>
    
    <!-- Small pepper definition -->
    <g id="small-pepper">
      <path d="M10,1 C12.5,1 15,2.5 16.5,5 C18,7.5 18,10 17.5,12.5 C17,15 18,17.5 19,20 C20,22.5 21,25 20,27.5 C19,30 16.5,32.5 14,33 C11.5,33.5 9,32.5 8,30 C7,27.5 7,25 8,22.5 C9,20 8.5,17.5 7.5,15 C6.5,12.5 5.5,10 6.5,7.5 C7.5,5 8.5,2.5 10,1 Z" fill="#E63946" />
      <path d="M10,1 C11,0 12,-0.5 13,0.5 C14,1.5 13.5,3.5 12.5,4.5 C11.5,5.5 9.5,5.5 8.5,4.5 C7.5,3.5 7.5,2.5 10,1 Z" fill="#00A86B" />
    </g>
  </defs>
  
  <!-- Repeated pattern -->
  <g opacity="0.9">
    <!-- Row 1 -->
    <use href="#pepper" x="20" y="20" transform="rotate(15, 20, 20)" />
    <use href="#small-pepper" x="90" y="30" transform="rotate(-10, 90, 30)" />
    <use href="#pepper" x="140" y="25" transform="rotate(25, 140, 25)" />
    <use href="#small-pepper" x="210" y="15" transform="rotate(-5, 210, 15)" />
    <use href="#pepper" x="270" y="30" transform="rotate(10, 270, 30)" />
    <use href="#small-pepper" x="330" y="20" transform="rotate(-15, 330, 20)" />
    
    <!-- Row 2 -->
    <use href="#small-pepper" x="40" y="90" transform="rotate(5, 40, 90)" />
    <use href="#pepper" x="100" y="80" transform="rotate(-20, 100, 80)" />
    <use href="#small-pepper" x="170" y="95" transform="rotate(10, 170, 95)" />
    <use href="#pepper" x="230" y="85" transform="rotate(-15, 230, 85)" />
    <use href="#small-pepper" x="300" y="90" transform="rotate(20, 300, 90)" />
    <use href="#pepper" x="360" y="80" transform="rotate(-10, 360, 80)" />
    
    <!-- Row 3 -->
    <use href="#pepper" x="30" y="150" transform="rotate(-5, 30, 150)" />
    <use href="#small-pepper" x="90" y="160" transform="rotate(15, 90, 160)" />
    <use href="#pepper" x="160" y="145" transform="rotate(-25, 160, 145)" />
    <use href="#small-pepper" x="220" y="155" transform="rotate(5, 220, 155)" />
    <use href="#pepper" x="290" y="150" transform="rotate(-10, 290, 150)" />
    <use href="#small-pepper" x="350" y="160" transform="rotate(15, 350, 160)" />
    
    <!-- Row 4 -->
    <use href="#small-pepper" x="50" y="220" transform="rotate(-15, 50, 220)" />
    <use href="#pepper" x="110" y="210" transform="rotate(20, 110, 210)" />
    <use href="#small-pepper" x="180" y="225" transform="rotate(-10, 180, 225)" />
    <use href="#pepper" x="240" y="215" transform="rotate(25, 240, 215)" />
    <use href="#small-pepper" x="310" y="220" transform="rotate(-20, 310, 220)" />
    <use href="#pepper" x="370" y="210" transform="rotate(10, 370, 210)" />
    
    <!-- Row 5 -->
    <use href="#pepper" x="20" y="280" transform="rotate(15, 20, 280)" />
    <use href="#small-pepper" x="90" y="290" transform="rotate(-10, 90, 290)" />
    <use href="#pepper" x="140" y="275" transform="rotate(25, 140, 275)" />
    <use href="#small-pepper" x="210" y="285" transform="rotate(-5, 210, 285)" />
    <use href="#pepper" x="270" y="280" transform="rotate(10, 270, 280)" />
    <use href="#small-pepper" x="330" y="290" transform="rotate(-15, 330, 290)" />
    
    <!-- Row 6 -->
    <use href="#small-pepper" x="40" y="350" transform="rotate(5, 40, 350)" />
    <use href="#pepper" x="100" y="340" transform="rotate(-20, 100, 340)" />
    <use href="#small-pepper" x="170" y="355" transform="rotate(10, 170, 355)" />
    <use href="#pepper" x="230" y="345" transform="rotate(-15, 230, 345)" />
    <use href="#small-pepper" x="300" y="350" transform="rotate(20, 300, 350)" />
    <use href="#pepper" x="360" y="340" transform="rotate(-10, 360, 340)" />
  </g>
</svg>
